<?xml version="1.0" encoding="UTF-8" standalone="no"?>
<!DOCTYPE svg PUBLIC "-//W3C//DTD SVG 1.1//EN"
 "http://www.w3.org/Graphics/SVG/1.1/DTD/svg11.dtd">
<!-- Generated by graphviz version 2.42.4 (0)
 -->
<!-- Title: G Pages: 1 -->
<svg width="1236pt" height="293pt"
 viewBox="0.00 0.00 1236.40 293.40" xmlns="http://www.w3.org/2000/svg" xmlns:xlink="http://www.w3.org/1999/xlink">
<g id="graph0" class="graph" transform="scale(1 1) rotate(0) translate(25.2 268.2)">
<title>G</title>
<polygon fill="#081426" stroke="transparent" points="-25.2,25.2 -25.2,-268.2 1211.2,-268.2 1211.2,25.2 -25.2,25.2"/>
<!-- client -->
<g id="node1" class="node">
<title>client</title>
<path fill="#102c45" stroke="#38bdf8" stroke-width="1.6" d="M123,-141C123,-141 12,-141 12,-141 6,-141 0,-135 0,-129 0,-129 0,-111 0,-111 0,-105 6,-99 12,-99 12,-99 123,-99 123,-99 129,-99 135,-105 135,-111 135,-111 135,-129 135,-129 135,-135 129,-141 123,-141"/>
<text text-anchor="middle" x="67.5" y="-123.2" font-family="DejaVu Sans" font-size="11.00" fill="#f8fafc">Client Endpoint</text>
<text text-anchor="middle" x="67.5" y="-111.2" font-family="DejaVu Sans" font-size="11.00" fill="#f8fafc">PC / Laptop / Phone</text>
</g>
<!-- sw -->
<g id="node2" class="node">
<title>sw</title>
<path fill="#102c45" stroke="#60a5fa" stroke-width="1.6" d="M370,-243C370,-243 265,-243 265,-243 259,-243 253,-237 253,-231 253,-231 253,-201 253,-201 253,-195 259,-189 265,-189 265,-189 370,-189 370,-189 376,-189 382,-195 382,-201 382,-201 382,-231 382,-231 382,-237 376,-243 370,-243"/>
<text text-anchor="middle" x="317.5" y="-225.2" font-family="DejaVu Sans" font-size="11.00" fill="#f8fafc">Access Switch</text>
<text text-anchor="middle" x="317.5" y="-213.2" font-family="DejaVu Sans" font-size="11.00" fill="#f8fafc">VLAN membership</text>
<text text-anchor="middle" x="317.5" y="-201.2" font-family="DejaVu Sans" font-size="11.00" fill="#f8fafc">L2 security</text>
</g>
<!-- client&#45;&gt;sw -->
<g id="edge1" class="edge">
<title>client&#45;&gt;sw</title>
<path fill="none" stroke="#64748b" stroke-width="1.5" d="M122.92,-141.07C159.03,-155.04 206.78,-173.53 245.81,-188.64"/>
<polygon fill="#64748b" stroke="#64748b" stroke-width="1.5" points="245.06,-191.16 253,-191.42 246.95,-186.26 245.06,-191.16"/>
<text text-anchor="middle" x="194" y="-181.8" font-family="DejaVu Sans" font-size="9.00" fill="#cbd5e1">Ethernet / Wi&#45;Fi</text>
</g>
<!-- dns -->
<g id="node5" class="node">
<title>dns</title>
<path fill="#2a183c" stroke="#c084fc" stroke-width="1.6" d="M364,-157C364,-157 271,-157 271,-157 265,-157 259,-151 259,-145 259,-145 259,-127 259,-127 259,-121 265,-115 271,-115 271,-115 364,-115 364,-115 370,-115 376,-121 376,-127 376,-127 376,-145 376,-145 376,-151 370,-157 364,-157"/>
<text text-anchor="middle" x="317.5" y="-139.2" font-family="DejaVu Sans" font-size="11.00" fill="#f8fafc">DNS 10.0.15.11</text>
<text text-anchor="middle" x="317.5" y="-127.2" font-family="DejaVu Sans" font-size="11.00" fill="#f8fafc">Name resolution</text>
</g>
<!-- client&#45;&gt;dns -->
<g id="edge5" class="edge">
<title>client&#45;&gt;dns</title>
<path fill="none" stroke="#c084fc" stroke-width="1.5" d="M135.15,-128.79C143.18,-129.64 151.27,-130.41 159,-131 189.17,-133.31 222.67,-134.55 250.99,-135.23"/>
<polygon fill="#c084fc" stroke="#c084fc" stroke-width="1.5" points="251.28,-137.86 258.83,-135.4 251.39,-132.61 251.28,-137.86"/>
<text text-anchor="middle" x="194" y="-136.8" font-family="DejaVu Sans" font-size="9.00" fill="#cbd5e1">DNS query</text>
</g>
<!-- gw -->
<g id="node3" class="node">
<title>gw</title>
<path fill="#3a1717" stroke="#ef4444" stroke-width="1.6" d="M612,-194C612,-194 498,-194 498,-194 492,-194 486,-188 486,-182 486,-182 486,-152 486,-152 486,-146 492,-140 498,-140 498,-140 612,-140 612,-140 618,-140 624,-146 624,-152 624,-152 624,-182 624,-182 624,-188 618,-194 612,-194"/>
<text text-anchor="middle" x="555" y="-176.2" font-family="DejaVu Sans" font-size="11.00" fill="#f8fafc">Default Gateway</text>
<text text-anchor="middle" x="555" y="-164.2" font-family="DejaVu Sans" font-size="11.00" fill="#f8fafc">802.1Q subinterface</text>
<text text-anchor="middle" x="555" y="-152.2" font-family="DejaVu Sans" font-size="11.00" fill="#f8fafc">ACL enforcement</text>
</g>
<!-- sw&#45;&gt;gw -->
<g id="edge2" class="edge">
<title>sw&#45;&gt;gw</title>
<path fill="none" stroke="#64748b" stroke-width="1.5" d="M382.23,-202.74C411.87,-196.57 447.33,-189.19 478.32,-182.75"/>
<polygon fill="#64748b" stroke="#64748b" stroke-width="1.5" points="478.87,-185.31 485.68,-181.22 477.8,-180.17 478.87,-185.31"/>
<text text-anchor="middle" x="434" y="-199.8" font-family="DejaVu Sans" font-size="9.00" fill="#cbd5e1">VLAN traffic</text>
</g>
<!-- dhcp -->
<g id="node4" class="node">
<title>dhcp</title>
<path fill="#2a183c" stroke="#c084fc" stroke-width="1.6" d="M892,-97C892,-97 769,-97 769,-97 763,-97 757,-91 757,-85 757,-85 757,-67 757,-67 757,-61 763,-55 769,-55 769,-55 892,-55 892,-55 898,-55 904,-61 904,-67 904,-67 904,-85 904,-85 904,-91 898,-97 892,-97"/>
<text text-anchor="middle" x="830.5" y="-79.2" font-family="DejaVu Sans" font-size="11.00" fill="#f8fafc">DHCP 10.0.15.10</text>
<text text-anchor="middle" x="830.5" y="-67.2" font-family="DejaVu Sans" font-size="11.00" fill="#f8fafc">Central IP assignment</text>
</g>
<!-- gw&#45;&gt;dhcp -->
<g id="edge3" class="edge">
<title>gw&#45;&gt;dhcp</title>
<path fill="none" stroke="#a78bfa" stroke-width="1.5" d="M624.31,-144.27C665.36,-130.61 717.49,-113.27 758.93,-99.48"/>
<polygon fill="#a78bfa" stroke="#a78bfa" stroke-width="1.5" points="759.99,-101.9 766.27,-97.04 758.33,-96.91 759.99,-101.9"/>
<text text-anchor="middle" x="690.5" y="-136.8" font-family="DejaVu Sans" font-size="9.00" fill="#cbd5e1">DHCP relay</text>
</g>
<!-- core -->
<g id="node7" class="node">
<title>core</title>
<path fill="#3a1717" stroke="#f87171" stroke-width="1.6" d="M880,-182C880,-182 781,-182 781,-182 775,-182 769,-176 769,-170 769,-170 769,-152 769,-152 769,-146 775,-140 781,-140 781,-140 880,-140 880,-140 886,-140 892,-146 892,-152 892,-152 892,-170 892,-170 892,-176 886,-182 880,-182"/>
<text text-anchor="middle" x="830.5" y="-164.2" font-family="DejaVu Sans" font-size="11.00" fill="#f8fafc">OSPF Core</text>
<text text-anchor="middle" x="830.5" y="-152.2" font-family="DejaVu Sans" font-size="11.00" fill="#f8fafc">Best&#45;path routing</text>
</g>
<!-- gw&#45;&gt;core -->
<g id="edge7" class="edge">
<title>gw&#45;&gt;core</title>
<path fill="none" stroke="#64748b" stroke-width="1.5" d="M624.31,-165.5C666.02,-164.59 719.16,-163.42 760.92,-162.5"/>
<polygon fill="#64748b" stroke="#64748b" stroke-width="1.5" points="761.14,-165.13 768.58,-162.34 761.02,-159.88 761.14,-165.13"/>
<text text-anchor="middle" x="690.5" y="-166.8" font-family="DejaVu Sans" font-size="9.00" fill="#cbd5e1">inter&#45;subnet traffic</text>
</g>
<!-- dhcp&#45;&gt;client -->
<g id="edge4" class="edge">
<title>dhcp&#45;&gt;client</title>
<path fill="none" stroke="#a78bfa" stroke-width="1.5" stroke-dasharray="5,2" d="M756.61,-77.36C647.14,-79.76 433.82,-85.79 253,-99 216.68,-101.65 176.49,-106.05 142.92,-110.14"/>
<polygon fill="#a78bfa" stroke="#a78bfa" stroke-width="1.5" points="142.54,-107.54 135.42,-111.06 143.18,-112.75 142.54,-107.54"/>
<text text-anchor="middle" x="434" y="-91.8" font-family="DejaVu Sans" font-size="9.00" fill="#cbd5e1">IP, GW, DNS</text>
</g>
<!-- dns&#45;&gt;client -->
<g id="edge6" class="edge">
<title>dns&#45;&gt;client</title>
<path fill="none" stroke="#c084fc" stroke-width="1.5" stroke-dasharray="5,2" d="M258.81,-123.93C248.91,-122.29 238.69,-120.88 229,-120 200.97,-117.46 170.07,-116.92 142.94,-117.2"/>
<polygon fill="#c084fc" stroke="#c084fc" stroke-width="1.5" points="142.85,-114.58 135.39,-117.31 142.92,-119.83 142.85,-114.58"/>
<text text-anchor="middle" x="194" y="-122.8" font-family="DejaVu Sans" font-size="9.00" fill="#cbd5e1">service IP</text>
</g>
<!-- svc -->
<g id="node6" class="node">
<title>svc</title>
<path fill="#3b2612" stroke="#f59e0b" stroke-width="1.6" d="M1174,-48C1174,-48 1040,-48 1040,-48 1034,-48 1028,-42 1028,-36 1028,-36 1028,-18 1028,-18 1028,-12 1034,-6 1040,-6 1040,-6 1174,-6 1174,-6 1180,-6 1186,-12 1186,-18 1186,-18 1186,-36 1186,-36 1186,-42 1180,-48 1174,-48"/>
<text text-anchor="middle" x="1107" y="-30.2" font-family="DejaVu Sans" font-size="11.00" fill="#f8fafc">Internal / DMZ Service</text>
<text text-anchor="middle" x="1107" y="-18.2" font-family="DejaVu Sans" font-size="11.00" fill="#f8fafc">Web • File • Email • IoT</text>
</g>
<!-- svc&#45;&gt;client -->
<g id="edge9" class="edge">
<title>svc&#45;&gt;client</title>
<path fill="none" stroke="#64748b" stroke-width="1.5" stroke-dasharray="5,2" d="M1027.81,-15.2C973,-7.93 897.94,0 831.5,0 316.5,0 316.5,0 316.5,0 230.85,0 143.67,-58.72 99.02,-94.01"/>
<polygon fill="#64748b" stroke="#64748b" stroke-width="1.5" points="97.22,-92.09 93,-98.82 100.5,-96.18 97.22,-92.09"/>
<text text-anchor="middle" x="555" y="-2.8" font-family="DejaVu Sans" font-size="9.00" fill="#cbd5e1">application response</text>
</g>
<!-- core&#45;&gt;svc -->
<g id="edge8" class="edge">
<title>core&#45;&gt;svc</title>
<path fill="none" stroke="#64748b" stroke-width="1.5" d="M874.69,-139.92C923.82,-115.93 1003.93,-76.83 1055.8,-51.51"/>
<polygon fill="#64748b" stroke="#64748b" stroke-width="1.5" points="1057.02,-53.83 1062.61,-48.18 1054.72,-49.11 1057.02,-53.83"/>
<text text-anchor="middle" x="966" y="-115.8" font-family="DejaVu Sans" font-size="9.00" fill="#cbd5e1">routed + filtered</text>
</g>
</g>
</svg>
